<svg width="40" height="40" viewBox="0 0 40 40" fill="none" xmlns="http://www.w3.org/2000/svg">
<path d="M10.5317 8.84949C10.5317 10.6686 9.05705 12.1433 7.23792 12.1433C5.41879 12.1433 3.94409 10.6686 3.94409 8.84949C3.94409 7.03036 5.41879 5.55566 7.23792 5.55566C9.05705 5.55566 10.5317 7.03036 10.5317 8.84949Z" fill="#CCCCCC"/>
<path d="M20.4132 8.84949C20.4132 10.6686 18.9385 12.1433 17.1194 12.1433C15.3003 12.1433 13.8256 10.6686 13.8256 8.84949C13.8256 7.03036 15.3003 5.55566 17.1194 5.55566C18.9385 5.55566 20.4132 7.03036 20.4132 8.84949Z" fill="#CCCCCC"/>
<path d="M30.2947 8.84949C30.2947 10.6686 28.82 12.1433 27.0009 12.1433C25.1818 12.1433 23.7071 10.6686 23.7071 8.84949C23.7071 7.03036 25.1818 5.55566 27.0009 5.55566C28.82 5.55566 30.2947 7.03036 30.2947 8.84949Z" fill="#CCCCCC"/>
<path d="M25.354 30.9381C25.354 32.7572 23.8793 34.2319 22.0602 34.2319C20.241 34.2319 18.7663 32.7572 18.7663 30.9381C18.7663 29.119 20.241 27.6443 22.0602 27.6443C23.8793 27.6443 25.354 29.119 25.354 30.9381Z" fill="#CCCCCC"/>
<path d="M15.4725 30.9381C15.4725 32.7572 13.9978 34.2319 12.1787 34.2319C10.3595 34.2319 8.88483 32.7572 8.88483 30.9381C8.88483 29.119 10.3595 27.6443 12.1787 27.6443C13.9978 27.6443 15.4725 29.119 15.4725 30.9381Z" fill="#CCCCCC"/>
<path d="M8.47266 18.6592H15.8838V13.7178H18.3545V18.6592H25.7656V13.7178H28.2354V18.6592H35.0605V14.4932L40.001 19.4336L35.0605 24.374V21.1289H23.2949V26.0703H20.8242V21.1289H13.4141V26.0703H10.9434V21.1289H0V18.6592H6.00195V13.7178H8.47266V18.6592Z" fill="#CCCCCC"/>
</svg>
