<svg width="78" height="72" viewBox="0 0 78 72" fill="none" xmlns="http://www.w3.org/2000/svg">
<path d="M18.5489 2.59899C13.1757 1.17258 7.71193 4.19356 6.34515 9.34634C4.9785 14.4991 8.2263 19.8326 13.5995 21.259C17.2982 22.2409 21.0401 21.1155 23.4586 18.6378L23.4582 18.6377C21.5861 19.6321 19.3122 19.9461 17.0569 19.3474C12.445 18.1231 9.65704 13.5451 10.8303 9.12218C11.8887 5.13185 15.8096 2.63094 19.9534 3.0791C19.5042 2.88915 19.0352 2.72811 18.5489 2.59899Z" fill="black"/>
<path d="M56.0289 42.0368C55.9784 42.0163 55.9265 41.9968 55.8728 41.9778C55.9203 41.8656 55.9645 41.7557 56.0057 41.6494C56.0393 41.5615 56.0315 41.5238 55.9278 41.4595C55.5812 41.2463 55.1165 40.8831 54.791 40.5543C54.1849 39.9423 52.3937 37.8507 50.7026 35.8037C51.5191 36.3628 52.34 36.9619 52.7374 37.3319C53.5758 38.1127 55.4547 40.1737 56.9773 41.7525C56.6662 41.8457 56.3505 41.9404 56.0289 42.0368ZM46.7457 38.9631C47.0358 38.484 47.4757 37.5426 47.9122 36.5366C48.1124 36.7841 48.3085 37.0372 48.491 37.3021C48.8843 37.8731 49.7223 39.5211 50.5025 41.3098C49.2742 41.5591 48.5677 41.8287 47.8624 41.9617C47.0035 42.1238 46.6598 41.6781 46.2303 40.9892C45.8008 40.3003 46.2303 39.814 46.7457 38.9631ZM76.8584 36.4044C75.3509 35.8279 74.5698 36.071 73.3754 36.6699C72.1824 37.2687 68.8748 38.1584 65.7154 39.1278C65.5296 39.185 64.6757 39.442 63.3389 39.8437C63.3533 39.4006 63.1888 39.3857 62.5876 39.4162C62.3404 39.4287 61.899 39.3273 61.6243 39.2348C61.1705 39.0823 60.9074 39.0326 60.459 39.089C60.3183 39.1067 60.1195 39.1237 59.8967 39.1238C59.9033 39.0797 59.9123 39.0308 59.9183 38.9881C59.9279 38.9321 59.9249 38.8968 59.8626 38.8722C58.9581 38.4736 57.8777 37.859 57.4318 37.5629C55.6171 36.3578 51.6589 32.8543 51.0781 32.0009C50.8622 31.6833 50.4026 31.2725 49.8729 30.8532C49.8182 30.6926 49.7874 30.5332 49.7774 30.3726C49.8929 30.494 49.9994 30.6166 50.1096 30.776C50.5637 31.4344 51.2851 32.0548 52.0925 32.3712C51.6908 32.0928 51.3093 31.7115 51.0133 31.3351C51.2308 31.4332 51.4958 31.4994 51.8594 31.508C51.1081 31.3437 50.9485 30.7527 50.9229 30.4498C50.9003 30.1825 50.9235 29.9949 50.9257 29.8122C51.043 29.9066 51.1675 30.0047 51.2952 30.1114C51.7588 30.4989 52.3193 31.3424 52.5565 32.1259C52.5242 31.302 52.1577 30.4474 51.6617 29.8171C51.5758 29.708 51.509 29.6062 51.4481 29.5057C51.6862 29.6222 51.8703 29.7754 52.0168 29.9054C52.4871 30.3235 52.8135 31.1132 52.8124 31.5938C53.1502 30.8152 52.9502 29.9447 52.5223 29.22C52.2935 28.8313 51.8645 28.374 51.2929 27.9877C51.817 28.1275 52.5188 28.5322 52.8188 28.7112C53.1189 28.889 53.5934 29.3144 53.85 29.8135C53.8723 28.9576 53.1762 28.2796 52.7899 27.9522C52.4403 27.6555 51.5747 27.0632 51.1343 26.4833C51.2193 26.5385 51.3046 26.5998 51.3953 26.6733C52.026 27.1859 52.9026 27.5929 53.7713 27.6824C53.1109 27.4544 52.4279 27.0228 51.9927 26.6182C52.4461 26.715 52.8913 26.7211 53.4134 26.5949C51.8456 26.5581 51.6793 25.7599 51.4323 25.1051C51.2939 24.7385 51.118 24.389 50.9216 24.0715C53.1647 24.4332 55.5051 24.7422 56.8303 24.7912C57.1103 24.8059 57.1216 24.6662 56.8635 24.5178C55.1246 23.7159 53.2015 22.9581 51.2652 22.3157C51.3757 22.0361 51.459 21.7663 51.3518 21.5947C51.7212 21.2551 51.3611 20.371 51.5025 19.8376C51.6441 19.3043 52.92 18.7599 53.4665 18.6005C53.8554 18.4864 54.4325 18.3663 54.94 18.3602C55.4474 18.3553 56.3542 18.4791 56.7741 18.6753C57.3195 18.9303 57.581 19.3877 57.5268 19.8045C57.4895 20.0915 57.3128 20.322 57.0167 20.5145C56.884 20.5905 56.9174 20.7389 57.1308 20.6984C57.3911 20.642 57.6748 20.5292 57.9625 20.3023C58.6189 19.7861 58.3513 18.7574 57.6925 18.2216C57.0621 17.7091 56.2763 17.5399 55.3855 17.2726C54.809 17.0997 52.7214 16.5001 51.6578 16.4707C50.7168 16.4449 50.0916 16.4498 49.3928 16.7122C48.6637 16.9857 47.5605 17.4332 46.8458 18.1002C46.0312 18.8604 45.1667 19.6525 44.3734 20.631C42.0321 20.284 39.2543 20.0338 37.6203 20.1417C37.2981 20.1675 37.2204 20.2913 37.5276 20.4041C38.7593 20.8872 41.1135 21.7136 43.3303 22.3892C43.2655 22.5695 43.2349 22.7252 43.2582 22.8417C43.3242 23.1727 43.1586 23.2978 42.8544 23.5038C42.5264 23.7269 42.2547 23.9292 42.0992 24.0286C41.9436 24.1267 41.9123 24.4001 42.1396 24.481C42.2672 24.5276 42.5019 24.5705 42.6597 24.6146C42.7994 24.6539 42.8658 24.8072 42.8085 24.9653C42.7804 25.0426 42.7546 25.1039 42.6692 25.1934C42.6078 25.2584 42.6241 25.4251 42.7369 25.5342C42.555 25.6348 42.5982 25.8665 42.7006 25.9377C42.8094 26.0124 42.8775 26.2062 42.883 26.2736C42.8981 26.4563 42.85 26.5188 42.7715 26.742C42.6848 26.9884 42.9239 27.2656 43.1515 27.3072C43.3789 27.3502 43.6548 27.3526 43.8888 27.3636C44.0955 27.3735 44.4486 27.4728 44.6462 27.8173C44.3773 27.8394 44.1119 27.8884 43.8568 27.9448C42.7657 28.1876 41.0758 29.1526 40.2841 29.9814C38.0282 31.5546 35.9783 32.6201 33.7341 32.8579C30.6749 33.1829 28.0745 32.6753 24.7433 33.4379C24.3552 34.2615 23.482 34.5666 23.5791 35.4515C26.2957 34.8412 28.5271 34.4751 31.1468 34.3226C31.568 34.298 31.9946 34.2632 32.4228 34.2226C31.6251 34.4715 30.8131 34.6776 29.9944 34.8226C26.3983 35.4594 22.2454 36.2376 19.8706 37.6526C20.9954 38.0065 21.3703 39.0677 20.7455 40.0111C20.1205 40.9543 19.8706 41.544 20.2455 42.7232C21.9953 41.544 26.134 39.4791 28.4949 38.8383C26.495 39.8995 22.8702 42.1335 21.7454 44.0203C23.7451 44.9635 24.995 45.5532 25.3699 46.3786C27.0072 42.7438 28.2577 41.564 30.8695 39.5394C32.0985 38.5865 33.3475 37.554 34.9307 36.672C36.0334 36.0575 37.3108 35.4721 38.8305 34.9286C38.8132 34.9913 38.7976 35.0516 38.7793 35.1159C38.4208 36.3763 36.8388 38.5942 34.4455 40.73C32.8405 42.1626 31.1468 44.3914 31.9877 46.6494C32.3156 47.5296 32.9135 48.226 33.6781 48.7105C30.528 49.6459 27.8298 50.4431 26.0135 50.9727C25.979 50.8364 25.9476 50.7049 25.9229 50.5951C25.6702 50.6461 25.39 50.7188 24.9936 50.8297C25.325 50.6155 25.6027 50.4906 25.8979 50.3843C25.8764 50.1865 25.9678 49.4503 25.9969 49.3296C24.6544 49.4041 22.8726 51.0579 22.4367 51.4481C21.7368 51.3382 20.7677 51.278 20.4223 51.6473C18.0088 50.8471 10.8797 50.6356 8.14114 50.6524C5.40256 50.6692 2.22731 50.814 0 51.5453C0.31607 52.0733 0.535834 52.5721 0.607184 53.0874C1.17512 53.2426 2.39496 53.3933 3.36695 53.5C2.44252 53.4821 1.43895 53.38 0.616931 53.2277C0.615891 53.3391 0.610828 53.8013 0.593153 53.9141C1.63104 54.1648 3.39541 54.209 4.29008 54.2196C3.38697 54.5096 1.41478 54.449 0.642016 54.4646C0.711026 55.5073 1.11235 56.5005 1.53603 57.1355C2.5526 57.1724 6.39197 56.6661 7.92658 56.1491C6.00403 56.9457 4.16466 57.3974 2.94301 57.6794C3.00604 57.8606 3.19176 58.173 3.33056 58.3874C4.15518 58.2731 5.32874 58.0078 5.97232 57.8382C5.38918 58.0518 4.22757 58.4332 3.48301 58.6076C4.13152 59.4767 5.13926 60.4288 5.65144 60.8003C6.90624 60.6458 10.3634 59.3326 11.3858 58.2823C10.9064 59.2073 6.91442 60.7892 6.11944 61.1632C6.52843 61.5543 7.57788 61.9835 8.60914 62.3158C8.86607 62.203 9.90656 61.596 10.2942 61.3876C9.90981 61.7186 9.23023 62.2299 8.90389 62.4188C9.31133 62.5389 9.73319 62.6481 10.151 62.7437C12.5443 60.5967 16.0504 59.8771 18.7323 57.8051C19.9827 56.8391 21.1686 55.4672 21.5178 54.8165C22.2159 54.8454 22.9751 54.2234 23.2079 53.7896C24.5292 53.8918 26.7676 53.7744 27.4601 53.5603C27.2071 53.2789 26.9226 52.9059 26.7456 52.6552C26.1514 52.7936 25.4751 52.8885 24.95 52.8852C25.5228 52.7958 26.2914 52.647 26.6206 52.5055C26.5867 52.4502 26.5533 52.3913 26.5213 52.3313C28.8379 51.6156 32.2881 50.559 35.8743 49.4589C36.3326 49.5109 36.8079 49.5131 37.2916 49.4565C39.5863 49.1876 40.4286 49.0598 42.0781 48.5106C40.4718 49.1818 39.45 49.8819 38.3265 50.677C37.1623 51.5008 36.5478 52.0805 35.2439 53.6502C35.6398 54.7901 36.7854 56.0675 37.9936 56.5982C37.9936 56.5982 38.1187 56.4016 38.7019 56.0087C38.6993 56.4048 38.7361 56.7813 38.7898 57.1528C37.9057 58.1816 37.0856 59.2335 36.5056 59.7588C36.4923 59.7483 36.4629 59.7194 36.438 59.6977C36.3692 59.6379 36.3134 59.5857 36.2351 59.5966C36.144 59.6092 36.0842 59.7034 36.0229 59.783C35.924 59.9113 35.7979 60.0597 35.6503 60.1664C35.3194 60.4055 35.0818 60.4876 34.5505 60.6728C34.0191 60.8591 33.1277 61.2723 33.1412 61.661C32.8146 61.9185 32.4628 62.2998 32.1881 62.6125C32.1106 62.7069 32.1085 62.8553 32.1842 62.9963L32.5027 63.4781C32.1743 64.2886 31.8421 64.9716 31.7289 65.6435C31.6234 66.2688 31.6157 66.9395 31.9392 67.7022C32.2785 68.5028 32.753 69.0558 33.637 69.3906C34.1527 69.5867 35.0287 69.5536 35.6854 69.2385C36.3421 68.9222 36.4051 68.5543 35.9696 68.3986C35.7284 68.3128 35.1855 68.4428 34.7043 68.1301C34.4276 67.9499 34.2029 67.4606 34.2677 66.8942C34.3039 66.5778 34.4284 66.1511 34.7243 65.6754C34.808 65.5417 34.9146 65.3223 34.8983 65.2082C35.1086 65.1702 35.2703 64.952 35.2163 64.7889C35.3727 64.7729 35.4868 64.6626 35.529 64.5804C36.006 63.6523 36.7296 62.9276 37.3644 62.4323C37.6113 62.2385 37.9384 61.997 38.1362 61.856C38.2256 61.791 38.2432 61.7297 38.2425 61.6708C38.2419 61.6046 38.2031 61.558 38.1614 61.5188C38.1249 61.4845 38.1066 61.4734 38.1066 61.4734C38.302 61.352 38.7153 61.07 39.2226 60.7169C39.2123 61.0381 39.185 61.3753 39.1297 61.737C40.3274 61.0345 41.3429 60.2706 42.2493 59.4167C41.8066 60.457 41.4505 61.3949 40.8845 62.1159C40.8333 62.0926 40.8057 62.0791 40.7589 62.0571C40.6939 62.0264 40.6593 62.0289 40.6065 62.0534C40.5288 62.0889 40.5041 62.149 40.4668 62.2667C40.4099 62.4445 40.3683 62.5328 40.2434 62.691C39.9934 63.0049 39.7435 63.201 39.2852 63.5162C38.8268 63.83 38.1244 64.3536 38.1972 64.7729C37.993 65.0868 37.7756 65.4436 37.5711 65.7931C37.4533 65.9782 37.5147 66.1646 37.6699 66.3154L38.1187 66.7397C38.0354 67.6041 38.0168 68.4575 38.1001 69.0853C38.1834 69.7143 38.3373 70.2354 38.9409 70.9061C39.5321 71.5633 40.2593 71.86 40.8059 71.9544C41.4527 72.066 42.2722 71.9851 42.8265 71.5743C43.4062 71.1439 43.2357 70.5873 42.7788 70.6719C42.4523 70.7332 42.0673 70.7332 41.5349 70.5517C41.2191 70.4438 40.7434 70.1593 40.7017 69.6481C40.6754 69.3256 40.765 68.8008 40.9078 68.2601C40.9285 68.1816 40.9594 68.0185 40.8653 67.9548C40.9855 67.88 41.077 67.7733 41.1112 67.6678C41.153 67.5391 41.1478 67.3956 41.0835 67.2902C41.2158 67.2387 41.2765 67.1369 41.3242 67.0254C41.6941 66.1646 42.4384 64.768 42.6598 64.4198C42.8062 64.1905 42.9382 63.9735 43.0393 63.8018C43.1108 63.6805 43.1562 63.5971 43.1346 63.5272C43.1121 63.4549 43.0437 63.4291 43.0437 63.4291L42.963 63.3874C43.2109 63.0882 43.9164 62.2851 44.6772 61.4146C44.9929 62.3464 45.295 63.3237 45.3121 64.3867C46.7495 63.2084 48.3215 60.2828 49.0549 58.819C50.0771 56.7793 51.2239 55.4228 52.1796 54.2202C54.2666 51.5941 55.6164 49.3628 56.0876 46.9728C56.3047 45.8728 56.3456 45.016 56.2917 44.3279C56.3291 44.28 56.3529 44.225 56.3674 44.1321C56.4914 44.1168 56.7123 43.9135 56.7069 43.7608C56.9933 43.6291 57.1056 43.3677 56.9441 43.0845C56.9224 43.0464 56.9007 43.0021 56.8782 42.9546C57.2084 42.8579 57.5406 42.7608 57.8738 42.6639C58.0701 42.8583 58.2545 43.037 58.4169 43.1871C58.572 43.3362 58.6878 43.3204 58.7916 43.1402C58.9061 42.8965 59.017 42.6092 59.1229 42.3021C59.1905 42.2826 59.2575 42.2634 59.3249 42.244C59.6665 42.5825 59.9216 42.7614 60.3036 42.8967C60.6797 43.0297 60.9901 43.0241 61.2124 42.7612C61.5652 42.7894 62.0076 42.6314 61.9567 42.4199C62.2501 42.4009 62.4566 42.3638 62.6474 42.2253C62.7686 42.1373 62.746 41.98 62.7017 41.8536C63.2264 41.6928 63.3046 41.4643 63.286 41.1201C64.6991 40.7265 65.7661 40.4395 66.1508 40.3538C68.4693 39.8375 74.3839 38.4236 75.5835 38.3586C76.7843 38.2935 77.5745 38.5455 77.8851 37.9822C78.1958 37.4188 77.8838 36.7971 76.8584 36.4044Z" fill="black"/>
</svg>
